<?xml version="1.0" encoding="UTF-8"?>
<svg id="Layer_1" data-name="Layer 1" xmlns="http://www.w3.org/2000/svg" xmlns:xlink="http://www.w3.org/1999/xlink" viewBox="0 0 800 400">
  <defs>
    <style>
      .cls-1 {
        fill: url(#linear-gradient);
      }

      .cls-1, .cls-2, .cls-3, .cls-4, .cls-5, .cls-6, .cls-7, .cls-8, .cls-9, .cls-10, .cls-11, .cls-12, .cls-13 {
        stroke-width: 0px;
      }

      .cls-2 {
        fill: #6d6e71;
      }

      .cls-3 {
        fill: #916357;
      }

      .cls-4 {
        fill: #8e8939;
      }

      .cls-5 {
        fill: #5d9eb1;
      }

      .cls-6 {
        fill: #f17db1;
      }

      .cls-7 {
        fill: #beb632;
      }

      .cls-8 {
        fill: #7ed3f7;
      }

      .cls-9 {
        fill: url(#linear-gradient-2);
      }

      .cls-10 {
        fill: url(#linear-gradient-3);
      }

      .cls-11 {
        fill: #bcb64f;
      }

      .cls-12 {
        fill: #00c0f3;
      }

      .cls-13 {
        fill: url(#linear-gradient-4);
      }
    </style>
    <linearGradient id="linear-gradient" x1="281.78" y1="-375.9" x2="281.78" y2="-310.01" gradientTransform="translate(-259.72 412.54) rotate(30)" gradientUnits="userSpaceOnUse">
      <stop offset=".16" stop-color="#cbdb2a"/>
      <stop offset="1" stop-color="#f7941d"/>
    </linearGradient>
    <linearGradient id="linear-gradient-2" x1="169.32" y1="-384.57" x2="119.28" y2="-384.57" gradientTransform="translate(-259.72 412.54) rotate(30)" gradientUnits="userSpaceOnUse">
      <stop offset="0" stop-color="#cbdb2a"/>
      <stop offset="1" stop-color="#a978b4"/>
    </linearGradient>
    <linearGradient id="linear-gradient-3" x1="246.61" y1="-378.7" x2="194.94" y2="-378.7" xlink:href="#linear-gradient"/>
    <linearGradient id="linear-gradient-4" x1="205.38" y1="-367.75" x2="127.82" y2="-367.75" gradientTransform="translate(-259.72 412.54) rotate(30)" gradientUnits="userSpaceOnUse">
      <stop offset="0" stop-color="#bcb64f"/>
      <stop offset="1" stop-color="#ef5ba1"/>
    </linearGradient>
  </defs>
  <g>
    <path class="cls-12" d="M253.03,137.12h18.52v42.97h3.91v-46.9h-22.43v3.93ZM279.29,180.09h3.93v-42.97h18.52v-3.93h-22.45v46.9ZM253.03,125.37v3.91h48.71v-3.91h-48.71Z"/>
    <path class="cls-12" d="M493.58,180.09h3.91v-42.97h18.52v-3.93h-22.44v46.9ZM467.3,137.12h18.54v42.97h3.92v-46.9h-22.45v3.93ZM467.3,125.37v3.91h48.71v-3.91h-48.71Z"/>
    <g>
      <path class="cls-12" d="M534.88,159.16h37.51v-11.3c0-13.46-10.9-24.37-24.36-24.37s-24.37,10.91-24.37,24.37v9.13c0,13.45,10.91,24.36,24.37,24.36h6.02v-3.9h-6.02c-11.31,0-20.48-9.16-20.48-20.46v-9.13c0-11.3,9.17-20.47,20.48-20.47s20.48,9.17,20.48,20.47v7.39h-37.05v1.74c0,9.15,7.42,16.56,16.57,16.56h6.02v-3.89h-6.02c-6.48,0-11.83-4.86-12.59-11.12l-.56.62Z"/>
      <path class="cls-12" d="M548.03,131.29c-9.15,0-16.57,7.43-16.57,16.58v3.49h33.15v-3.49c0-9.15-7.42-16.58-16.58-16.58ZM535.36,147.46c.22-6.81,5.81-12.26,12.67-12.26s12.44,5.45,12.65,12.26h-25.31Z"/>
    </g>
    <g>
      <rect class="cls-12" x="636.76" y="102.09" width="3.9" height="78"/>
      <path class="cls-12" d="M611.44,178.07c-13.99,0-25.32-11.34-25.32-25.32s11.33-25.33,25.32-25.33c9.3,0,16.72,5.32,21.44,12.49v-37.81h-3.89v28.02c-4.77-3.94-10.82-6.58-17.54-6.58-16.13,0-29.21,13.08-29.21,29.22s13.08,29.22,29.21,29.22c6.72,0,12.8-2.2,17.54-6.58l.54,4.71h3.36v-14.52c-4.25,7.48-12.13,12.49-21.44,12.49Z"/>
      <path class="cls-12" d="M611.44,131.31c-11.83,0-21.42,9.6-21.42,21.44s9.59,21.43,21.42,21.43,20.88-9.6,20.88-21.43-9.05-21.44-20.88-21.44ZM611.44,170.28c-9.68,0-17.53-7.85-17.53-17.53s7.85-17.54,17.53-17.54,17.54,7.85,17.54,17.54-7.85,17.53-17.54,17.53Z"/>
    </g>
    <g>
      <rect class="cls-2" x="783.3" y="102.09" width="3.89" height="78"/>
      <path class="cls-2" d="M757.96,178.07c-13.98,0-25.33-11.34-25.33-25.32s11.35-25.33,25.33-25.33c9.3,0,16.71,5.32,21.43,12.49v-37.81h-3.9v28.02c-4.76-3.94-10.81-6.58-17.53-6.58-16.14,0-29.22,13.08-29.22,29.22s13.08,29.22,29.22,29.22c6.72,0,12.79-2.2,17.53-6.58l.56,4.71h3.34v-14.52c-4.24,7.48-12.12,12.49-21.43,12.49Z"/>
      <path class="cls-2" d="M757.96,131.31c-11.83,0-21.43,9.6-21.43,21.44s9.6,21.43,21.43,21.43,20.88-9.6,20.88-21.43-9.04-21.44-20.88-21.44ZM757.96,170.28c-9.68,0-17.53-7.85-17.53-17.53s7.84-17.54,17.53-17.54,17.53,7.85,17.53,17.54-7.84,17.53-17.53,17.53Z"/>
    </g>
    <g>
      <rect class="cls-12" x="312.39" y="125.37" width="3.89" height="54.72"/>
      <path class="cls-12" d="M341.62,124.91c-6.72,0-12.79,2.18-17.54,6.59l-.55-6.12h-3.35v15.93c4.24-7.48,12.13-12.49,21.44-12.49v-3.9Z"/>
      <path class="cls-12" d="M324.08,154.13c0-9.68,7.85-17.54,17.54-17.54v-3.9c-11.85,0-21.36,9.59-21.36,21.44l-.08,25.96h3.9v-25.96Z"/>
    </g>
    <path class="cls-2" d="M702.38,101.63c-3.64,0-6.59,2.94-6.59,6.59s2.95,6.57,6.59,6.57,6.59-2.94,6.59-6.57-2.95-6.59-6.59-6.59ZM702.38,111.17c-1.62,0-2.95-1.33-2.95-2.95s1.33-2.95,2.95-2.96c1.62,0,2.95,1.32,2.96,2.96-.01,1.62-1.34,2.94-2.96,2.95Z"/>
    <path class="cls-2" d="M685.54,180.09h32.96v-3.91h-32.96v3.91ZM700.18,133.19h-14.64v3.93h10.87v31.23h-10.87v3.92h14.64v-39.08ZM685.54,125.37v3.91h32.96v-3.91h-32.96ZM703.87,172.27h14.64v-3.92h-10.88v-31.23h10.88v-3.93h-14.64v39.08Z"/>
    <path class="cls-12" d="M434.48,157.91l6.2,1.27c6.87,1.38,6.79,4.21,6.78,5.41-.04,1.33-.8,5.66-9.14,5.66-7.04,0-8.74-3.32-9.08-4.33l-3.8.82c.06.3,1.83,7.39,12.88,7.39,12.15,0,12.97-7.86,13.02-9.44.13-4.84-3.21-7.98-9.89-9.33l-6.19-1.26c-9.29-1.95-12.43-8.61-12.29-14.21.12-5.04,4.55-12.54,16.2-12.54,14.32,0,16.66,10.68,16.68,10.79l3.8-.78c-.98-4.8-6.52-13.89-20.48-13.89-7.88,0-12.6,3.03-15.17,5.55-2.97,2.92-4.81,6.95-4.91,10.77-.23,8.99,5.81,16.1,15.4,18.12ZM442.99,147.77l-6.16-1.26c-4.14-.87-6.21-3.03-6.12-6.42,0-.05.36-4.99,8.45-4.99,7.07,0,8.74,3.55,9.07,4.6l3.81-.78c-.1-.45-1.93-7.69-12.88-7.69-9.92,0-12.26,6.32-12.33,8.75-.06,2.51.71,8.53,9.2,10.32l6.19,1.26c11.54,2.33,13.09,9.28,12.99,13.22-.14,4.91-3.83,13.21-16.9,13.21-11.44,0-15.92-6.83-16.68-10.46l-3.79.8c.99,4.69,6.55,13.53,20.47,13.53,16.05,0,20.6-10.68,20.77-16.99.11-4.16-1.25-14.14-16.09-17.12Z"/>
    <g>
      <path class="cls-12" d="M392.19,156.83c0,7.42-6,13.42-13.4,13.42s-13.41-6-13.41-13.42v-31.46h-3.93v31.46c0,9.58,7.76,17.35,17.34,17.35s17.33-7.76,17.33-17.35v-31.46h-3.93v31.46Z"/>
      <path class="cls-12" d="M396.12,169.05c-3.84,5.45-10.17,9.01-17.33,9.01-11.73,0-21.22-9.5-21.22-21.23v-31.46h-3.91v31.46c0,13.9,11.25,25.14,25.13,25.14,5,0,9.65-1.47,13.56-3.98l.31,2.1h3.45v-11.04Z"/>
      <rect class="cls-12" x="400" y="125.37" width="3.91" height="54.72"/>
    </g>
    <rect class="cls-2" x="653.09" y="151.35" width="25.39" height="3.9"/>
  </g>
  <g>
    <path class="cls-3" d="M112.61,267.66l-60.11,4.52,113.34,30.38-53.23-34.9Z"/>
    <path class="cls-1" d="M112.61,267.66l53.23,34.9,42.07-72.88-95.3,37.98Z"/>
    <path class="cls-6" d="M176.88,175.51l31.03,54.17v-104.31l-31.03,50.14Z"/>
    <path class="cls-11" d="M104.04,148.52l103.87-23.15-143.12-38.35,39.25,61.5Z"/>
    <path class="cls-9" d="M104.04,148.52l-39.25-61.5L5.2,190.25l98.85-41.73Z"/>
    <path class="cls-3" d="M91.17,229.68L5.2,190.25l47.3,81.92,38.67-42.5Z"/>
    <polygon class="cls-4" points="207.91 229.68 112.61 267.66 91.17 229.68 207.91 229.68"/>
    <polygon class="cls-7" points="207.91 229.68 176.88 175.51 91.17 229.68 207.91 229.68"/>
    <polygon class="cls-10" points="176.88 175.51 104.04 148.52 91.17 229.68 176.88 175.51"/>
    <polygon class="cls-5" points="112.61 267.66 91.17 229.68 52.5 272.18 112.61 267.66"/>
    <polygon class="cls-13" points="104.04 148.52 91.17 229.68 5.2 190.25 104.04 148.52"/>
    <polygon class="cls-8" points="207.91 125.37 176.88 175.51 104.04 148.52 207.91 125.37"/>
  </g>
</svg>